<svg t="1733308326788" class="icon" viewBox="0 0 1024 1024" version="1.1" xmlns="http://www.w3.org/2000/svg" p-id="12308" width="200" height="200"><path d="M960 224v-64A96 96 0 0 0 864 64h-64V0h64A160 160 0 0 1 1024 160v64h-64zM960 512a448 448 0 0 1-233.472 393.344L832 1024h-96l-85.888-85.888a445.824 445.824 0 0 1-276.16 0L288 1024H192l105.472-118.656A448 448 0 1 1 960 512zM512 128a384 384 0 1 0 384 384 384 384 0 0 0-384-384z m224 416H512a32 32 0 0 1-32-32V256a32 32 0 0 1 64 0v224h192a32 32 0 0 1 0 64zM160 64A96 96 0 0 0 64 160v64H0v-64A160 160 0 0 1 160 0h64v64h-64z" fill="#919191" p-id="12309"></path></svg>